<svg version="1.1" xmlns="http://www.w3.org/2000/svg" viewBox="0 0 250 250"><desc>Created with Snap</desc><defs></defs><g transform="matrix(0.0267,0,0,0.0267,5.6275,106.1097)"><g><g transform="matrix(1.024,0,0,-1.024,0,0)"><path d="M124 700L379 700Q453 700 508 672Q564 644 600 594Q636 545 653 482Q671 419 671 350Q671 254 639 174Q608 95 543 47Q479 0 379 0L124 0Q112 0 103 9Q94 18 94 30L94 670Q94 682 103 691Q112 700 124 700ZM151 59L369 59Q454 59 506 98Q558 137 582 203Q607 270 607 350Q607 408 593 460Q580 513 551 553Q523 594 477 617Q432 641 369 641L150 641L157 650L157 49L151 59ZM1025 -10Q948 -10 889 23Q830 56 797 115Q764 174 764 253Q764 338 797 398Q831 458 884 490Q938 523 998 523Q1042 523 1083 507Q1125 492 1157 461Q1189 431 1209 387Q1229 343 1230 285Q1230 273 1221 264Q1212 256 1200 256L799 256L787 310L1181 310L1168 298L1168 318Q1163 365 1137 398Q1111 431 1074 448Q1038 465 998 465Q968 465 936 453Q905 441 879 415Q854 390 838 350Q822 311 822 257Q822 198 846 150Q870 102 915 74Q960 46 1024 46Q1058 46 1086 56Q1114 66 1135 82Q1157 99 1171 117Q1182 126 1192 126Q1203 126 1210 118Q1218 110 1218 100Q1218 88 1208 79Q1178 43 1130 16Q1082 -10 1025 -10Z" fill="#072a55" style=""></path></g></g><g transform="matrix(1,0,0,1,66.9013,1075.2)"><g transform="matrix(1.024,0,0,-1.024,0,0)"><path d="M310 627L328 623L85 19Q81 9 74 4Q67 -1 58 -1Q44 -1 37 6Q30 14 29 25Q28 30 30 37L294 683Q299 694 306 698Q314 703 324 703Q334 703 341 697Q349 692 353 683L616 40Q618 34 618 28Q618 14 609 6Q600 -1 588 -1Q578 -1 570 4Q563 10 559 19L310 627ZM490 202L143 202L168 261L478 261L490 202ZM967 523Q1033 523 1072 496Q1112 470 1129 424Q1147 379 1147 324L1147 30Q1147 18 1138 9Q1129 0 1117 0Q1103 0 1095 9Q1087 18 1087 30L1087 321Q1087 361 1074 394Q1061 427 1031 447Q1002 467 954 467Q911 467 872 447Q834 427 810 394Q786 361 786 321L786 30Q786 18 777 9Q768 0 756 0Q742 0 734 9Q726 18 726 30L726 478Q726 490 734 499Q743 508 756 508Q769 508 777 499Q786 490 786 478L786 394L763 358Q765 390 783 419Q802 449 831 472Q860 496 895 509Q931 523 967 523ZM1338 56L1624 56Q1636 56 1644 47Q1653 39 1653 28Q1653 16 1644 8Q1636 0 1624 0L1299 0Q1286 0 1278 10Q1270 20 1270 29Q1270 35 1272 40Q1274 46 1279 52L1582 471L1586 462L1324 462Q1312 462 1303 470Q1295 479 1295 490Q1295 502 1303 510Q1312 518 1324 518L1631 518Q1642 518 1650 509Q1659 500 1659 488Q1659 482 1657 477Q1655 472 1651 466L1350 51L1338 56ZM2198 511Q2211 511 2219 502Q2228 493 2228 480L2228 30Q2228 18 2219 9Q2210 0 2198 0Q2184 0 2176 9Q2168 18 2168 30L2168 149L2185 157Q2185 129 2169 100Q2154 71 2127 46Q2100 21 2063 5Q2027 -10 1984 -10Q1917 -10 1863 25Q1810 60 1779 121Q1749 182 1749 258Q1749 336 1780 395Q1811 455 1864 489Q1917 523 1983 523Q2026 523 2063 508Q2101 493 2129 467Q2157 441 2173 407Q2189 374 2189 338L2168 353L2168 480Q2168 493 2176 502Q2184 511 2198 511ZM1990 46Q2043 46 2084 73Q2125 101 2148 149Q2172 198 2172 258Q2172 317 2148 364Q2125 411 2084 439Q2043 467 1990 467Q1938 467 1896 440Q1855 413 1831 366Q1808 319 1808 258Q1808 198 1831 149Q1854 101 1895 73Q1937 46 1990 46ZM2717 59L3060 59Q3072 59 3081 50Q3090 42 3090 30Q3090 17 3081 8Q3072 0 3060 0L2703 0Q2690 0 2681 9Q2673 18 2673 30L2673 670Q2673 682 2682 691Q2691 700 2705 700Q2717 700 2726 691Q2736 682 2736 670L2736 42L2717 59ZM3248 490L3248 30Q3248 18 3239 9Q3230 0 3218 0Q3205 0 3196 9Q3188 18 3188 30L3188 490Q3188 502 3196 511Q3205 520 3218 520Q3231 520 3239 511Q3248 502 3248 490ZM3218 587Q3197 587 3186 596Q3176 606 3176 624L3176 634Q3176 652 3187 661Q3199 671 3219 671Q3238 671 3248 661Q3259 652 3259 634L3259 624Q3259 606 3248 596Q3238 587 3218 587ZM3645 523Q3711 523 3750 496Q3790 470 3807 424Q3825 379 3825 324L3825 30Q3825 18 3816 9Q3807 0 3795 0Q3781 0 3773 9Q3765 18 3765 30L3765 321Q3765 361 3752 394Q3739 427 3709 447Q3680 467 3632 467Q3589 467 3550 447Q3512 427 3488 394Q3464 361 3464 321L3464 30Q3464 18 3455 9Q3446 0 3434 0Q3420 0 3412 9Q3404 18 3404 30L3404 478Q3404 490 3412 499Q3421 508 3434 508Q3447 508 3455 499Q3464 490 3464 478L3464 394L3441 358Q3443 390 3461 419Q3480 449 3509 472Q3538 496 3573 509Q3609 523 3645 523ZM4018 0Q4005 0 3996 9Q3988 18 3988 30L3988 710Q3988 722 3996 731Q4005 740 4018 740Q4031 740 4039 731Q4048 722 4048 710L4048 30Q4048 18 4039 9Q4031 0 4018 0ZM4358 513Q4369 513 4378 503Q4387 494 4387 483Q4387 470 4376 460L4040 174L4037 245L4337 503Q4346 513 4358 513ZM4366 0Q4353 0 4344 11L4116 253L4161 294L4387 53Q4396 43 4396 30Q4396 16 4385 8Q4374 0 4366 0Z" fill="#072a55" style=""></path></g></g><g transform="matrix(0.75,0,0,0.75,83.968,1988.608)"><g transform="matrix(1.024,0,0,-1.024,0,0)"><path d="M16 693L549 693L549 609L331 609L331 0L234 0L234 609L16 609L16 693ZM738 0L645 0L645 760L738 776L738 510Q764 520 793 525Q823 531 852 531Q914 531 955 513Q996 496 1020 464Q1045 433 1055 389Q1065 345 1065 292L1065 0L972 0L972 272Q972 320 965 354Q959 388 944 409Q929 430 904 439Q879 449 842 449Q827 449 811 447Q795 445 780 442Q766 440 754 437Q743 434 738 432L738 0ZM1187 259Q1187 328 1207 379Q1227 431 1260 465Q1293 499 1336 516Q1379 533 1424 533Q1529 533 1585 467Q1641 402 1641 268Q1641 262 1641 252Q1641 243 1640 235L1284 235Q1290 154 1331 112Q1372 70 1459 70Q1508 70 1541 78Q1575 87 1592 95L1605 17Q1588 8 1545 -2Q1503 -12 1449 -12Q1381 -12 1331 8Q1282 29 1250 65Q1218 101 1202 150Q1187 200 1187 259ZM1286 310L1544 310Q1545 373 1512 413Q1480 454 1423 454Q1391 454 1366 441Q1342 429 1325 409Q1308 389 1298 363Q1289 337 1286 310ZM2173 69Q2325 69 2325 173Q2325 205 2311 227Q2298 250 2275 266Q2252 283 2222 295Q2193 307 2160 319Q2122 332 2088 348Q2054 365 2029 387Q2004 410 1989 441Q1975 472 1975 516Q1975 607 2037 658Q2099 709 2208 709Q2271 709 2322 695Q2374 682 2398 666L2367 587Q2346 600 2304 612Q2263 625 2208 625Q2180 625 2156 619Q2132 613 2114 601Q2096 589 2085 570Q2075 552 2075 527Q2075 499 2086 480Q2097 461 2117 446Q2137 432 2163 420Q2190 408 2222 396Q2267 378 2304 360Q2342 342 2369 317Q2397 292 2412 257Q2427 223 2427 174Q2427 83 2360 34Q2294 -15 2173 -15Q2132 -15 2097 -10Q2063 -4 2036 3Q2009 11 1989 19Q1970 28 1959 34L1988 114Q2011 101 2058 85Q2105 69 2173 69ZM2625 681L2625 520L2822 520L2822 442L2625 442L2625 202Q2625 163 2631 137Q2637 112 2649 97Q2661 83 2679 77Q2697 71 2721 71Q2763 71 2788 80Q2814 90 2824 94L2842 17Q2828 10 2793 -1Q2758 -11 2713 -11Q2660 -11 2625 2Q2591 16 2570 43Q2549 70 2540 109Q2532 149 2532 201L2532 665L2625 681ZM3354 520L3354 15Q3322 7 3269 -2Q3217 -11 3148 -11Q3088 -11 3047 6Q3006 24 2981 56Q2956 88 2945 131Q2934 175 2934 228L2934 520L3027 520L3027 248Q3027 153 3057 112Q3087 71 3158 71Q3173 71 3189 72Q3205 73 3219 74Q3233 76 3244 77Q3256 79 3261 81L3261 520L3354 520ZM3850 81L3850 410Q3833 424 3801 437Q3769 450 3731 450Q3691 450 3662 435Q3634 421 3616 395Q3598 370 3590 335Q3582 300 3582 260Q3582 169 3627 119Q3672 70 3747 70Q3785 70 3810 73Q3836 77 3850 81ZM3850 497L3850 760L3943 776L3943 15Q3911 6 3861 -3Q3811 -12 3746 -12Q3686 -12 3638 7Q3590 26 3556 61Q3522 96 3503 146Q3485 197 3485 260Q3485 320 3500 370Q3516 420 3546 456Q3576 492 3619 512Q3663 532 3719 532Q3764 532 3798 520Q3833 508 3850 497ZM4025 -172L4042 -97Q4053 -102 4070 -107Q4088 -111 4105 -111Q4160 -111 4191 -87Q4222 -62 4247 -7Q4184 113 4129 247Q4075 382 4039 520L4139 520Q4150 475 4165 423Q4181 371 4200 316Q4219 261 4241 206Q4263 151 4287 100Q4325 205 4353 308Q4381 411 4406 520L4502 520Q4466 373 4422 237Q4378 102 4327 -16Q4307 -61 4285 -94Q4264 -126 4238 -147Q4212 -168 4179 -178Q4147 -188 4106 -188Q4095 -188 4083 -187Q4071 -185 4059 -183Q4048 -180 4038 -177Q4029 -174 4025 -172ZM4926 30L4926 52Q4914 44 4879 31Q4845 19 4799 19Q4752 19 4710 34Q4669 49 4638 80Q4607 112 4589 159Q4571 206 4571 271Q4571 328 4588 375Q4605 423 4637 457Q4670 492 4717 511Q4764 531 4823 531Q4888 531 4936 521Q4985 512 5018 504L5018 40Q5018 -80 4956 -134Q4894 -188 4768 -188Q4719 -188 4675 -180Q4632 -172 4600 -161L4617 -80Q4645 -91 4685 -100Q4726 -108 4770 -108Q4853 -108 4889 -75Q4926 -42 4926 30ZM4925 134L4925 438Q4911 442 4887 445Q4864 449 4824 449Q4749 449 4708 400Q4668 351 4668 270Q4668 225 4679 193Q4691 161 4710 140Q4730 119 4755 109Q4781 99 4808 99Q4845 99 4876 109Q4907 120 4925 134ZM5370 531Q5382 531 5397 529Q5413 528 5428 525Q5443 523 5455 520Q5468 518 5474 516L5458 435Q5447 439 5421 444Q5396 450 5356 450Q5330 450 5304 444Q5279 439 5271 437L5271 0L5178 0L5178 498Q5211 510 5260 520Q5309 531 5370 531ZM6023 260Q6023 198 6005 148Q5987 98 5954 62Q5922 26 5877 6Q5832 -13 5779 -13Q5726 -13 5681 6Q5636 26 5603 62Q5571 98 5553 148Q5535 198 5535 260Q5535 321 5553 371Q5571 422 5603 458Q5636 494 5681 513Q5726 533 5779 533Q5832 533 5877 513Q5922 494 5954 458Q5987 422 6005 371Q6023 321 6023 260ZM5926 260Q5926 348 5886 399Q5847 451 5779 451Q5711 451 5671 399Q5632 348 5632 260Q5632 172 5671 120Q5711 69 5779 69Q5847 69 5886 120Q5926 172 5926 260ZM6568 520L6568 15Q6536 7 6483 -2Q6431 -11 6362 -11Q6302 -11 6261 6Q6220 24 6195 56Q6170 88 6159 131Q6148 175 6148 228L6148 520L6241 520L6241 248Q6241 153 6271 112Q6301 71 6372 71Q6387 71 6403 72Q6419 73 6433 74Q6447 76 6458 77Q6470 79 6475 81L6475 520L6568 520ZM7089 259Q7089 350 7044 399Q6999 448 6924 448Q6882 448 6858 445Q6835 442 6821 438L6821 110Q6838 96 6870 83Q6902 70 6940 70Q6980 70 7008 84Q7037 99 7055 124Q7073 150 7081 184Q7089 219 7089 259ZM7186 259Q7186 200 7170 150Q7155 100 7125 64Q7095 28 7051 8Q7008 -12 6952 -12Q6907 -12 6872 0Q6838 12 6821 23L6821 -185L6728 -185L6728 504Q6761 512 6810 521Q6860 531 6925 531Q6985 531 7033 512Q7081 493 7115 458Q7149 423 7167 372Q7186 322 7186 259ZM8110 0L8029 0Q8007 37 7978 83Q7950 129 7917 178Q7884 228 7848 279Q7813 330 7778 377Q7743 425 7710 467Q7677 509 7649 541L7649 0L7554 0L7554 693L7631 693Q7678 643 7731 576Q7785 510 7837 439Q7890 369 7936 301Q7983 233 8015 180L8015 693L8110 693L8110 0ZM8247 259Q8247 328 8267 379Q8287 431 8320 465Q8353 499 8396 516Q8439 533 8484 533Q8589 533 8645 467Q8701 402 8701 268Q8701 262 8701 252Q8701 243 8700 235L8344 235Q8350 154 8391 112Q8432 70 8519 70Q8568 70 8601 78Q8635 87 8652 95L8665 17Q8648 8 8605 -2Q8563 -12 8509 -12Q8441 -12 8391 8Q8342 29 8310 65Q8278 101 8262 150Q8247 200 8247 259ZM8346 310L8604 310Q8605 373 8572 413Q8540 454 8483 454Q8451 454 8426 441Q8402 429 8385 409Q8368 389 8358 363Q8349 337 8346 310ZM8922 681L8922 520L9119 520L9119 442L8922 442L8922 202Q8922 163 8928 137Q8934 112 8946 97Q8958 83 8976 77Q8994 71 9018 71Q9060 71 9085 80Q9111 90 9121 94L9139 17Q9125 10 9090 -1Q9055 -11 9010 -11Q8957 -11 8922 2Q8888 16 8867 43Q8846 70 8837 109Q8829 149 8829 201L8829 665L8922 681ZM9743 0L9662 0Q9634 72 9602 164Q9571 257 9545 357Q9519 257 9488 164Q9457 72 9429 0L9348 0Q9302 103 9258 235Q9214 367 9175 520L9275 520Q9285 473 9299 418Q9313 363 9328 308Q9344 253 9361 202Q9378 151 9393 113Q9410 160 9426 212Q9443 265 9458 318Q9473 372 9486 423Q9500 475 9510 520L9587 520Q9596 475 9609 423Q9622 372 9637 318Q9652 265 9668 212Q9685 160 9702 113Q9717 151 9733 202Q9750 253 9766 308Q9782 363 9796 418Q9810 473 9820 520L9916 520Q9877 367 9833 235Q9789 103 9743 0ZM10473 260Q10473 198 10455 148Q10437 98 10404 62Q10372 26 10327 6Q10282 -13 10229 -13Q10176 -13 10131 6Q10086 26 10053 62Q10021 98 10003 148Q9985 198 9985 260Q9985 321 10003 371Q10021 422 10053 458Q10086 494 10131 513Q10176 533 10229 533Q10282 533 10327 513Q10372 494 10404 458Q10437 422 10455 371Q10473 321 10473 260ZM10376 260Q10376 348 10336 399Q10297 451 10229 451Q10161 451 10121 399Q10082 348 10082 260Q10082 172 10121 120Q10161 69 10229 69Q10297 69 10336 120Q10376 172 10376 260ZM10796 531Q10808 531 10823 529Q10839 528 10854 525Q10869 523 10881 520Q10894 518 10900 516L10884 435Q10873 439 10847 444Q10822 450 10782 450Q10756 450 10730 444Q10705 439 10697 437L10697 0L10604 0L10604 498Q10637 510 10686 520Q10735 531 10796 531ZM11178 286Q11208 263 11241 229Q11275 195 11307 155Q11340 116 11369 75Q11398 35 11418 0L11309 0Q11288 35 11260 71Q11233 108 11203 141Q11173 175 11142 203Q11111 231 11083 250L11083 0L10990 0L10990 760L11083 776L11083 302Q11107 326 11136 355Q11165 384 11193 414Q11221 444 11246 471Q11271 499 11289 520L11398 520Q11375 495 11348 465Q11321 435 11292 404Q11263 374 11233 343Q11204 313 11178 286Z" fill="#072a55" style=""></path></g></g></g></svg>